<?xml version="1.0" encoding="utf-8"?>
<!-- Generator: Adobe Illustrator 27.6.1, SVG Export Plug-In . SVG Version: 6.00 Build 0)  -->
<svg version="1.1" id="Layer_1" xmlns="http://www.w3.org/2000/svg" xmlns:xlink="http://www.w3.org/1999/xlink" x="0px" y="0px"
	 viewBox="0 0 24 24" style="enable-background:new 0 0 24 24;" xml:space="preserve">
<style type="text/css">
	.st0{fill:none;}
	.st1{fill:#787678;}
	.st2{fill:#AB7678;}
</style>
<path class="st0" d="M11,7l1-1l1,1l1-1l1,1l1-1V5.1c0-1.7-1.1-3.2-2.8-3.6c-1.9-0.4-3.7,0.8-4.2,2.7C9,4.5,9,4.8,9,5v2l1-1L11,7z"/>
<path class="st1" d="M20,6l-1,1l-1-1l-1,1V5.1c0-2.2-1.5-4.1-3.6-4.6c-1.3-0.3-2.7,0.1-3.8,0.9C8.6,2.4,8,3.7,8,5v1L7,7L6,6L5,7L4,6
	C2.9,6,2,6.9,2,8v14c0,1.1,0.9,2,2,2h16c1.1,0,2-0.9,2-2V8C22,6.9,21.1,6,20,6z M9,5c0-1.9,1.6-3.5,3.5-3.5c0.2,0,0.5,0,0.7,0.1
	C14.9,2,16,3.5,16,5.1V6l-1,1l-1-1l-1,1l-1-1l-1,1l-1-1L9,7V5z M21,22c0,0.6-0.4,1-1,1H4c-0.6,0-1-0.4-1-1V8c0-0.4,0.3-0.8,0.7-0.9
	l0.6,0.7L5,8.4l0.7-0.7L6,7.4l0.3,0.3L7,8.4l0.7-0.7L8,7.4l0.3,0.3L9,8.4l0.7-0.7L10,7.4l0.3,0.3L11,8.4l0.7-0.7L12,7.4l0.3,0.3
	L13,8.4l0.7-0.7L14,7.4l0.3,0.3L15,8.4l0.7-0.7L16,7.4l0.3,0.3L17,8.4l0.7-0.7L18,7.4l0.3,0.3L19,8.4l0.7-0.7l0.6-0.7
	C20.7,7.2,21,7.6,21,8V22z"/>
<path class="st1" d="M10.4,14.1c0.2,0,0.4,0,0.5,0.1c0.1,0,0.1,0.1,0.1,0.2c0,0.1,0,0.2-0.1,0.2c-0.2,0.1-0.3,0.1-0.5,0.1H6.9
	c-0.1,0-0.2,0-0.3-0.1c-0.1-0.1-0.1-0.1-0.1-0.2c0-0.1,0-0.2,0.1-0.2c0.2-0.1,0.3-0.1,0.5-0.1h1.2v-3.5H7.2c-0.2,0-0.3,0-0.5-0.1
	c-0.1,0-0.1-0.1-0.1-0.2c0-0.1,0-0.2,0.1-0.2C6.8,10,6.9,10,7,10h3.7c0.1,0,0.2,0,0.3,0.1c0.1,0,0.1,0.1,0.1,0.2
	c0,0.1,0,0.2-0.1,0.2c-0.2,0.1-0.3,0.1-0.5,0.1H9.2v3.5H10.4z"/>
<path class="st1" d="M5.5,20.4h0.6c0.1,0,0.2,0,0.3,0.1c0.1,0,0.1,0.1,0.1,0.2c0,0.1,0,0.2-0.1,0.2c-0.1,0.1-0.3,0.1-0.4,0.1H4.7
	c-0.1,0-0.2,0-0.2-0.1c-0.1-0.1-0.1-0.1-0.1-0.2c0-0.1,0-0.2,0.1-0.2c0.1,0,0.2-0.1,0.4,0h0.1v-3.5H4.8c-0.2,0-0.3,0-0.5-0.1
	c-0.1,0-0.1-0.1-0.1-0.2c0-0.1,0-0.2,0.1-0.2c0.1-0.1,0.2-0.1,0.4-0.1h0.7c0.1,0,0.2,0,0.3,0c0.1,0.1,0.1,0.1,0.2,0.2L8.1,20v-3.1
	H7.6c-0.1,0-0.3,0-0.4-0.1c-0.1,0-0.1-0.1-0.1-0.2c0-0.1,0-0.2,0.1-0.2c0.1-0.1,0.3-0.1,0.4-0.1h1.3c0.1,0,0.2,0,0.2,0.1
	c0.1,0.1,0.1,0.1,0.1,0.2c0,0.1,0,0.2-0.1,0.2c-0.1,0-0.2,0.1-0.4,0.1h0v3.9c0,0.1,0,0.1-0.1,0.2c-0.1,0-0.2,0-0.3,0
	c-0.1,0-0.2,0-0.3,0C8,20.9,8,20.8,7.9,20.7l-2.4-3.6V20.4z"/>
<path class="st1" d="M18.4,20.4c0.2,0,0.3,0,0.5,0c0.1,0,0.1,0.1,0.1,0.2c0,0.1,0,0.2-0.1,0.2c-0.1,0.1-0.3,0.1-0.4,0.1h-2.3
	c-0.1,0-0.3,0-0.4-0.1c-0.1-0.1-0.1-0.1-0.1-0.2c0-0.1,0-0.2,0.1-0.2c0.2,0,0.3-0.1,0.5,0h0.7v-1.3l-1.6-2.2h-0.1
	c-0.1,0-0.3,0-0.4-0.1c-0.1-0.1-0.1-0.1-0.1-0.2c0-0.1,0-0.2,0.1-0.2c0.1-0.1,0.2-0.1,0.3-0.1h1.3c0.1,0,0.3,0,0.4,0.1
	c0.1,0.1,0.1,0.1,0.1,0.2c0,0.1,0,0.2-0.1,0.2c-0.1,0-0.3,0.1-0.4,0.1h-0.2l1.1,1.7l1.2-1.7h-0.2c-0.1,0-0.2,0-0.4-0.1
	c-0.1-0.1-0.1-0.1-0.1-0.2c0-0.1,0-0.2,0.1-0.2c0.1-0.1,0.3-0.1,0.4-0.1h0.9c0.2,0,0.3,0,0.5,0.1c0.1,0,0.1,0.1,0.1,0.2
	c0,0.1,0,0.2-0.1,0.2c-0.1,0-0.3,0.1-0.4,0.1h-0.1l-1.6,2.3v1.2L18.4,20.4z"/>
<path class="st2" d="M17.5,10.4c-0.6-0.6-1.6-0.6-2.2,0c-0.6-0.6-1.6-0.6-2.2,0c-0.6,0.5-0.6,1.4-0.1,2c0,0,0.1,0.1,0.1,0.1l2.2,2.1
	l2.2-2.1C18.1,12,18.2,11.1,17.5,10.4C17.6,10.5,17.6,10.5,17.5,10.4z"/>
<path class="st1" d="M10.9,20.4h0.6c0.1,0,0.2,0,0.3,0.1c0.1,0,0.1,0.1,0.1,0.2c0,0.1,0,0.2-0.1,0.2c-0.1,0.1-0.3,0.1-0.4,0.1H10
	c-0.1,0-0.2,0-0.2-0.1c-0.1-0.1-0.1-0.1-0.1-0.2c0-0.1,0-0.2,0.1-0.2c0.1,0,0.2-0.1,0.4,0h0.1v-3.5h-0.1c-0.2,0-0.3,0-0.5-0.1
	c-0.1,0-0.1-0.1-0.1-0.2c0-0.1,0-0.2,0.1-0.2c0.1-0.1,0.2-0.1,0.4-0.1h0.7c0.1,0,0.2,0,0.3,0c0.1,0.1,0.1,0.1,0.2,0.2l2.3,3.5v-3.1
	h-0.5c-0.1,0-0.3,0-0.4-0.1c-0.1,0-0.1-0.1-0.1-0.2c0-0.1,0-0.2,0.1-0.2c0.1-0.1,0.3-0.1,0.4-0.1h1.3c0.1,0,0.2,0,0.2,0.1
	c0.1,0.1,0.1,0.1,0.1,0.2c0,0.1,0,0.2-0.1,0.2c-0.1,0-0.2,0.1-0.4,0.1h0v3.9c0,0.1,0,0.1-0.1,0.2c-0.1,0-0.2,0-0.3,0
	c-0.1,0-0.2,0-0.3,0c-0.1-0.1-0.1-0.1-0.2-0.2l-2.4-3.6V20.4z"/>
</svg>
